<svg xmlns="http://www.w3.org/2000/svg" width="256" height="256" viewBox="0 0 100 100"><rect width="100" height="100" rx="20" fill="#779d61"></rect><path fill="#fff" d="M6.04 75.17L6.04 75.17Q2.51 74.12 1.27 73.16Q0.03 72.20 0.03 70.52L0.03 70.52Q0.03 68.66 0.90 65.28Q1.76 61.90 3.16 57.75Q4.55 53.60 6.35 49.07Q8.15 44.54 10.01 40.39Q11.87 36.24 13.64 32.79Q15.40 29.35 16.77 27.43L16.77 27.43L16.33 24.83Q17.20 24.83 18.75 25.26Q20.30 25.70 21.88 26.32Q23.46 26.94 24.67 27.59Q25.88 28.24 26.01 28.67L26.01 28.67Q25.70 30.16 25.51 33.17Q25.32 36.17 25.32 39.58L25.32 39.58Q25.32 46.34 25.85 52.82Q26.38 59.30 28.30 66.00L28.30 66.00Q29.29 61.04 30.44 56.11Q31.59 51.18 32.83 46.68Q34.07 42.19 35.31 38.34Q36.55 34.50 37.69 31.62Q38.84 28.73 39.83 27.09Q40.82 25.45 41.63 25.32L41.63 25.32Q42.31 25.45 43.12 25.85Q43.92 26.25 44.67 26.81Q45.41 27.37 46.03 28.05Q46.65 28.73 47.02 29.42L47.02 29.42Q45.04 30.22 43.09 33.20Q41.13 36.17 39.37 40.42Q37.60 44.67 36.08 49.63Q34.56 54.59 33.42 59.39Q32.27 64.20 31.62 68.29Q30.97 72.38 30.90 74.86L30.90 74.86Q30.90 74.99 30.97 75.05L30.97 75.05Q30.78 75.11 30.56 75.11Q30.35 75.11 30.16 75.11L30.16 75.11Q27.31 75.11 25.11 74.40Q22.91 73.68 22.22 72.38L22.22 72.38Q20.92 67.17 20.05 62.34Q19.19 57.50 18.60 52.67Q18.01 47.83 17.67 42.90Q17.33 37.97 17.14 32.58L17.14 32.58Q15.96 34.44 14.66 37.44Q13.36 40.45 12.12 44.05Q10.88 47.64 9.73 51.61Q8.58 55.58 7.72 59.36Q6.85 63.14 6.35 66.52Q5.86 69.90 5.86 72.38L5.86 72.38Q5.86 73.68 5.89 74.24Q5.92 74.80 6.04 75.17ZM68.48 75.05L68.48 75.05Q68.35 75.11 68.23 75.11Q68.10 75.11 67.73 75.11L67.73 75.11Q66.86 75.11 65.72 74.83Q64.57 74.55 63.48 74.15Q62.40 73.75 61.63 73.25Q60.85 72.75 60.66 72.38L60.66 72.38Q60.60 71.51 60.60 70.58Q60.60 69.65 60.60 68.79L60.60 68.79Q60.60 61.84 61.63 54.28Q62.65 46.71 65.00 37.91L65.00 37.91Q65.25 37.04 65.53 35.71Q65.81 34.38 66.12 32.83L66.12 32.83Q64.63 34.00 62.59 36.58Q60.54 39.15 58.28 42.65Q56.01 46.16 53.75 50.34Q51.49 54.53 49.63 58.83Q47.77 63.14 46.44 67.36Q45.10 71.58 44.79 75.17L44.79 75.17Q41.82 74.30 40.67 73.44Q39.52 72.57 39.52 71.33L39.52 71.33Q39.52 70.21 40.20 68.17Q40.89 66.12 42.13 63.33Q43.37 60.54 45.16 57.10Q46.96 53.66 49.13 49.69L49.13 49.69Q51.61 45.16 54.00 41.20Q56.39 37.23 58.68 34.00Q60.97 30.78 63.18 28.42Q65.38 26.07 67.55 24.83L67.55 24.83Q68.41 24.83 69.87 25.26Q71.33 25.70 72.72 26.32Q74.12 26.94 75.20 27.59Q76.29 28.24 76.41 28.67L76.41 28.67Q75.54 30.41 74.37 33.88Q73.19 37.35 71.98 41.75Q70.77 46.16 69.69 51.08Q68.60 56.01 67.98 60.54L67.98 60.54Q69.41 57.13 71.30 53.44Q73.19 49.75 75.30 46.12Q77.40 42.50 79.61 39.09Q81.81 35.68 83.91 32.86Q86.02 30.04 87.85 27.93Q89.68 25.82 91.11 24.83L91.11 24.83Q91.97 24.83 93.43 25.26Q94.89 25.70 96.28 26.32Q97.68 26.94 98.76 27.59Q99.85 28.24 99.97 28.67L99.97 28.67Q97.99 32.21 96.50 37.29Q95.01 42.37 93.99 47.95Q92.97 53.53 92.44 59.02Q91.91 64.51 91.91 68.85L91.91 68.85Q91.91 70.27 91.91 71.82Q91.91 73.37 92.04 75.05L92.04 75.05Q91.17 75.05 89.96 74.83Q88.75 74.61 87.60 74.24Q86.46 73.87 85.53 73.40Q84.60 72.94 84.22 72.38L84.22 72.38Q84.16 71.51 84.16 70.58Q84.16 69.65 84.16 68.79L84.16 68.79Q84.16 61.84 85.19 54.28Q86.21 46.71 88.56 37.91L88.56 37.91Q88.81 37.04 89.12 35.55Q89.43 34.07 89.74 32.45L89.74 32.45Q88.01 33.32 85.81 35.77Q83.60 38.22 81.34 41.72Q79.08 45.23 76.88 49.50Q74.68 53.78 72.91 58.21Q71.14 62.65 69.93 67.02Q68.72 71.39 68.48 75.05Z"></path></svg>